<svg id="visual" viewBox="0 0 1920 900" width="1920" height="900" xmlns="http://www.w3.org/2000/svg" xmlns:xlink="http://www.w3.org/1999/xlink" version="1.1"><rect x="0" y="0" width="1920" height="900" fill="#F5F2E9"></rect><path d="M0 666L45.7 677.2C91.3 688.3 182.7 710.7 274.2 730.2C365.7 749.7 457.3 766.3 548.8 746.8C640.3 727.3 731.7 671.7 823 658.5C914.3 645.3 1005.7 674.7 1097 701.2C1188.3 727.7 1279.7 751.3 1371.2 748.2C1462.7 745 1554.3 715 1645.8 689.5C1737.3 664 1828.7 643 1874.3 632.5L1920 622L1920 901L1874.3 901C1828.7 901 1737.3 901 1645.8 901C1554.3 901 1462.7 901 1371.2 901C1279.7 901 1188.3 901 1097 901C1005.7 901 914.3 901 823 901C731.7 901 640.3 901 548.8 901C457.3 901 365.7 901 274.2 901C182.7 901 91.3 901 45.7 901L0 901Z" fill="#fff" stroke-linecap="round" stroke-linejoin="miter"></path></svg>